<?xml version="1.0" encoding="utf-8"?>
<!-- Generator: Adobe Illustrator 19.0.0, SVG Export Plug-In . SVG Version: 6.00 Build 0)  -->
<svg version="1.2" baseProfile="tiny" id="Calque_1"
	 xmlns="http://www.w3.org/2000/svg" xmlns:xlink="http://www.w3.org/1999/xlink" x="0px" y="0px" viewBox="0 0 104 39" width="150px" height="56px"
	 xml:space="preserve">
<rect id="XMLID_338_" fill-rule="evenodd" fill="none" width="104" height="39"/>
<g id="XMLID_14_">
	<path id="XMLID_31_" fill="none" d="M95.9,4.2c-1.8,0-3.3,0.6-4.4,1.8c-1.1,1.2-1.7,2.6-1.7,4.4v0c0,1.8,0.6,3.3,1.7,4.4
		c1.1,1.2,2.6,1.8,4.4,1.8c1.8-0.1,3.3-0.7,4.4-1.8c1.1-1.2,1.7-2.6,1.7-4.4c0-1.7-0.6-3.2-1.7-4.4C99.1,4.8,97.7,4.2,95.9,4.2z"/>
	<polygon id="XMLID_36_" fill="#FFFFFF" points="67,4.5 67,17.8 68.7,17.8 68.7,2.9 	"/>
	<path id="XMLID_37_" fill="#FFFFFF" d="M83.4,10.6c0.6-0.9,0.9-1.8,0.9-2.9c0-0.9-0.2-1.6-0.6-2.3c-0.4-0.7-0.9-1.3-1.5-1.6
		c-0.4-0.3-0.9-0.4-1.5-0.6C80.1,3,79.2,2.9,78,2.9h-3.9v14.9h1.7V4.4h2.3c1.3-0.1,2.3,0.1,3,0.5c1,0.7,1.4,1.7,1.5,2.9
		c0,1.1-0.4,2-1.1,2.7c-0.4,0.4-0.9,0.6-1.6,0.7c-0.6,0.1-1.2,0.1-1.7,0.1h-0.5l4.2,6.6h1.8L80,12.2c0.7-0.1,1.3-0.2,1.8-0.4
		C82.4,11.6,82.9,11.2,83.4,10.6z"/>
	<path id="XMLID_411_" fill="#FFFFFF" d="M95.9,2.6c-2.2,0-4,0.8-5.5,2.2c-1.5,1.4-2.3,3.3-2.3,5.6v0c0,2.2,0.8,4,2.3,5.4
		c1.5,1.4,3.3,2.2,5.6,2.2c2.2-0.1,4.1-0.8,5.5-2.2c1.4-1.4,2.2-3.3,2.3-5.5c-0.1-2.2-0.8-4-2.3-5.5C99.9,3.4,98.1,2.7,95.9,2.6z
		 M100.3,14.7c-1.1,1.2-2.6,1.8-4.4,1.8c-1.8,0-3.3-0.6-4.4-1.8c-1.1-1.2-1.7-2.6-1.7-4.4v0c0-1.8,0.6-3.2,1.7-4.4
		c1.1-1.2,2.6-1.8,4.4-1.8c1.8,0,3.3,0.7,4.4,1.8c1.1,1.2,1.7,2.6,1.7,4.4C102,12.1,101.4,13.6,100.3,14.7z"/>
	<path id="XMLID_412_" fill="#FFFFFF" d="M47,8.6c-0.1,0.7-0.2,1.3-0.2,2v0c0.1,2,0.9,3.6,2.1,5h0c0,0,0.1,0.1,0.1,0.1
		c1.3,1.3,2.9,2,4.8,2.2c0.3,0,0.6,0,0.8,0.1h0.1c0.3,0,0.6,0,0.8-0.1c0.3,0,0.6-0.1,0.9-0.1c0.1,0,0.2,0,0.3-0.1
		c1.4-0.3,2.5-1,3.6-2c0,0,0.1-0.1,0.1-0.1h0c0.9-0.9,1.5-2,1.8-3.2c0-0.1,0.1-0.2,0.1-0.3c0,0,0,0,0,0c0.1-0.3,0.1-0.7,0.2-1.1v0
		c0-0.1,0-0.3,0-0.4v0c0-0.2,0-0.5,0-0.7c0-0.1,0-0.2,0-0.3h-6.5l-1.4,1.4h6.1c0,0.3-0.1,0.6-0.2,0.9c0,0.2-0.1,0.4-0.2,0.5
		c-0.3,0.7-0.7,1.3-1.2,1.9c-0.1,0.1-0.1,0.1-0.2,0.2c-0.1,0.1-0.2,0.2-0.2,0.2c-1.1,1.1-2.5,1.6-4.1,1.6c-0.2,0-0.4,0-0.6,0
		c-1.4-0.1-2.7-0.7-3.8-1.8c-1.1-1.1-1.7-2.4-1.8-3.9v0c0-0.7,0.1-1.5,0.3-2.2v0c0.3-0.9,0.8-1.8,1.6-2.6c1.1-1.1,2.3-1.6,3.8-1.8
		c0.2,0,0.4,0,0.6,0c1.5,0,2.8,0.5,3.9,1.4l1.2-1.2C59.5,4.1,59.3,4,59,3.8c-1.2-0.8-2.7-1.2-4.3-1.2c-2.2,0-4.1,0.8-5.6,2.2
		C48,5.8,47.3,7.1,47,8.6z"/>
	<polygon id="XMLID_414_" fill="#FFFFFF" points="81.5,36.1 81.5,21.4 78.7,21.4 78.7,31.6 72,21.4 69.3,21.4 69.3,36.1 72.2,36.1 
		72.1,25.9 78.8,36.1 	"/>
	<polygon id="XMLID_415_" fill="#FFFFFF" points="66.9,24.1 66.9,21.4 58.6,21.4 58.6,36.1 66.9,36.1 66.9,33.5 61.6,33.5 61.6,30 
		65.5,30 65.5,27.3 61.6,27.3 61.6,24.1 	"/>
	<path id="XMLID_416_" fill="#FFFFFF" d="M90,27.9c-1.4-0.7-2.2-1.2-2.6-1.4c-0.5-0.3-0.7-0.7-0.7-1.2c0-0.5,0.2-0.8,0.6-1.2
		c0.3-0.3,0.8-0.4,1.3-0.5c0.3,0,0.6,0.1,0.9,0.2c0.2,0.1,0.4,0.3,0.5,0.5c0.1,0.2,0.2,0.4,0.3,0.6c0.1,0.2,0.1,0.4,0.2,0.6l2.9-0.4
		c-0.1-0.8-0.2-1.4-0.5-1.9c-0.3-0.5-0.6-0.9-1.1-1.2c-1-0.6-2-0.9-3-0.9c-1.2,0-2.3,0.4-3.4,1.1c-0.5,0.4-0.9,0.8-1.2,1.3
		c-0.2,0.5-0.4,1.1-0.4,1.7c0,0.6,0.1,1.2,0.5,1.8c0.1,0.2,0.3,0.4,0.4,0.6c0.2,0.2,0.3,0.4,0.5,0.5c0.6,0.4,1.4,0.9,2.4,1.5
		c0.6,0.3,1.3,0.7,2,1.1c0.3,0.1,0.5,0.3,0.7,0.6c0.2,0.3,0.3,0.5,0.3,0.7c0,0.3,0,0.5-0.1,0.6c-0.1,0.2-0.2,0.4-0.4,0.6
		c-0.3,0.3-0.8,0.5-1.5,0.5c-0.3,0-0.8-0.1-1.2-0.4c-0.2-0.2-0.4-0.4-0.6-0.8c-0.2-0.4-0.3-0.8-0.3-1.1l-2.8,0.3
		c0,0.6,0.2,1.2,0.4,1.8c0.2,0.6,0.5,1.1,0.9,1.4c0.5,0.4,1,0.7,1.7,1c0.7,0.2,1.4,0.4,2,0.4c0.7,0,1.4-0.1,2.1-0.4
		c0.7-0.3,1.3-0.6,1.7-1c0.4-0.4,0.7-0.9,0.9-1.4c0.2-0.5,0.3-1,0.3-1.6c0-0.9-0.3-1.6-0.8-2.2C92.2,29.2,91.3,28.6,90,27.9z"/>
	<path id="XMLID_417_" fill="#FFFFFF" d="M53.3,33.3c-0.3,0.3-0.8,0.5-1.5,0.5c-0.3,0-0.8-0.1-1.2-0.4c-0.2-0.2-0.4-0.4-0.6-0.8
		c-0.2-0.4-0.3-0.8-0.3-1.1l-2.8,0.3c0,0.6,0.2,1.2,0.4,1.8c0.2,0.6,0.5,1.1,0.9,1.4c0.5,0.4,1,0.7,1.7,1c0.7,0.2,1.4,0.4,2,0.4
		c0.7,0,1.4-0.1,2.1-0.4c0.7-0.3,1.3-0.6,1.7-1c0.4-0.4,0.7-0.9,0.9-1.4c0.2-0.5,0.3-1,0.3-1.6c0-0.9-0.3-1.6-0.8-2.2
		c-0.5-0.5-1.4-1.1-2.7-1.8c-1.4-0.7-2.2-1.2-2.6-1.4c-0.5-0.3-0.7-0.7-0.7-1.2c0-0.5,0.2-0.8,0.6-1.2c0.3-0.3,0.8-0.4,1.3-0.5
		c0.3,0,0.6,0.1,0.9,0.2c0.2,0.1,0.4,0.3,0.5,0.5c0.1,0.2,0.2,0.4,0.3,0.6c0.1,0.2,0.1,0.4,0.2,0.6l2.9-0.4
		c-0.1-0.8-0.2-1.4-0.5-1.9c-0.3-0.5-0.6-0.9-1.1-1.2c-1-0.6-2-0.9-3-0.9c-1.2,0-2.3,0.4-3.4,1.1c-0.5,0.4-0.9,0.8-1.2,1.3
		c-0.2,0.5-0.4,1.1-0.4,1.7c0,0.6,0.1,1.2,0.5,1.8c0.1,0.2,0.3,0.4,0.4,0.6c0.2,0.2,0.3,0.4,0.5,0.5c0.6,0.4,1.4,0.9,2.4,1.5
		c0.6,0.3,1.3,0.7,2,1.1c0.3,0.1,0.5,0.3,0.7,0.6c0.2,0.3,0.3,0.5,0.3,0.7c0,0.3,0,0.5-0.1,0.6C53.6,32.9,53.5,33.1,53.3,33.3z"/>
	<polygon id="XMLID_418_" fill="#FFFFFF" points="103.6,24.1 103.6,21.4 95.3,21.4 95.3,36.1 103.6,36.1 103.6,33.5 98.3,33.5 
		98.3,30 102.2,30 102.2,27.3 98.3,27.3 98.3,24.1 	"/>
	<path id="XMLID_419_" fill="#F33328" d="M26.9,9.9c-0.5-0.2-1-0.3-1.5-0.4c-0.3,0-0.6-0.1-1-0.1c-1.6,0-2.9,0.5-4.1,1.4
		c-0.2,0.2-0.4,0.4-0.6,0.6c0,0,0,0,0,0c-0.4,0.4-0.7,0.7-0.9,1.1c-0.1,0.1-0.2,0.2-0.2,0.4l6.5,2.4c0.4,0.9,0.7,1.9,0.8,2.9
		c0,0.3,0,0.5,0,0.8v0.1l-11-4c0-0.3,0.1-0.6,0.1-0.9c0.2-0.8,0.4-1.6,0.8-2.4c0.1-0.1,0.1-0.3,0.2-0.4c0.1-0.2,0.2-0.4,0.4-0.6
		c0.2-0.3,0.4-0.5,0.6-0.8c-0.3,0-0.5,0-0.8,0c-0.9,0.1-1.7,0.2-2.4,0.5c-0.2,0.1-0.4,0.2-0.6,0.2c-0.9,0.4-1.7,1-2.5,1.7
		c0,0,0,0,0,0c-0.2,0.2-0.4,0.4-0.6,0.7c-0.2,0.2-0.4,0.5-0.6,0.7c0,0-0.1,0.1-0.1,0.1c-0.6,0.9-1,1.9-1.2,3c0,0.2-0.1,0.4-0.1,0.6
		c0,0.3-0.1,0.6-0.1,1C8,18.9,8,19,8,19v0.1c0,2.4,0.9,4.5,2.6,6.2c1.7,1.7,3.8,2.6,6.3,2.6c2,0,3.7-0.6,5.2-1.7
		c0.2-0.2,0.4-0.3,0.6-0.5c0.2-0.1,0.3-0.3,0.5-0.4c0.5-0.5,0.9-1,1.2-1.5c0.1-0.2,0.2-0.4,0.3-0.6l-9.3-3.4
		c-0.5-1.1-0.7-2.3-0.7-3.6v0v0v-0.1l14.2,5.2c0.1-0.1,0.2-0.2,0.3-0.3c0.1-0.1,0.2-0.2,0.4-0.4c0,0,0,0,0-0.1
		c0.2-0.2,0.4-0.5,0.5-0.7c0.1-0.2,0.2-0.3,0.3-0.5c0.3-0.6,0.5-1.2,0.6-1.8c0-0.1,0.1-0.3,0.1-0.4c0-0.3,0-0.6,0-0.9
		c0-1.9-0.7-3.5-2-4.8C28.5,10.7,27.7,10.2,26.9,9.9z"/>
	<path id="XMLID_422_" fill="#F33328" d="M38.2,0H0v38.2h38.2V0z M34,18.1c0,0.1-0.1,0.3-0.1,0.4c-0.2,0.8-0.5,1.6-0.9,2.3
		c-0.1,0.2-0.3,0.5-0.4,0.7c-0.2,0.3-0.4,0.5-0.6,0.7c0,0-0.1,0.1-0.1,0.1c-0.2,0.2-0.4,0.4-0.6,0.6c-0.6,0.6-1.3,1.2-2,1.6
		c-0.1,0.1-0.2,0.1-0.3,0.2c-0.3,0.1-0.5,0.3-0.8,0.4c0,0,0,0-0.1,0c-0.2,0.3-0.3,0.5-0.5,0.8c-0.5,0.7-1,1.4-1.7,2
		c-2.5,2.5-5.5,3.7-9,3.7c-3.5,0-6.5-1.2-9-3.7c-2.5-2.5-3.7-5.5-3.7-9v-0.3c0-0.8,0.1-1.6,0.2-2.3C4.6,15.2,5,14,5.6,12.9
		c0.6-1,1.3-2,2.2-2.9c0.2-0.2,0.5-0.5,0.7-0.7C8.7,9.2,8.8,9.1,8.9,9c2.3-1.8,4.9-2.7,7.9-2.7c1.2,0,2.4,0.2,3.5,0.5
		C20.7,6.8,21,6.9,21.3,7c0.4-0.1,0.8-0.2,1.2-0.3c0.6-0.1,1.3-0.2,1.9-0.2c2.7,0,5,0.9,6.9,2.8c1.9,1.9,2.8,4.2,2.8,6.9
		C34.1,16.8,34.1,17.5,34,18.1z"/>
	<path id="XMLID_425_" fill="#FFFFFF" d="M24.4,6.5c-0.7,0-1.3,0.1-1.9,0.2c-0.4,0.1-0.8,0.2-1.2,0.3c-0.3-0.1-0.6-0.2-0.9-0.3
		c-1.1-0.3-2.3-0.5-3.5-0.5c-3,0-5.7,0.9-7.9,2.7C8.8,9.1,8.7,9.2,8.6,9.3C8.3,9.5,8.1,9.8,7.8,10c-0.9,0.9-1.6,1.9-2.2,2.9
		C5,14,4.6,15.2,4.3,16.5c-0.1,0.7-0.2,1.5-0.2,2.3v0.3c0,3.5,1.3,6.5,3.7,9c2.5,2.5,5.5,3.7,9,3.7c3.5,0,6.5-1.2,9-3.7
		c0.6-0.6,1.2-1.3,1.7-2c0.2-0.3,0.3-0.5,0.5-0.8c0,0,0,0,0.1,0c0.3-0.1,0.6-0.3,0.8-0.4c0.1-0.1,0.2-0.1,0.3-0.2
		c0.7-0.4,1.4-1,2-1.6c0.2-0.2,0.4-0.4,0.6-0.6c0,0,0.1-0.1,0.1-0.1c0.2-0.2,0.4-0.5,0.6-0.7c0.2-0.2,0.3-0.5,0.4-0.7
		c0.4-0.7,0.7-1.5,0.9-2.3c0-0.1,0.1-0.3,0.1-0.4c0.1-0.6,0.2-1.3,0.2-1.9c0-2.7-0.9-5-2.8-6.9C29.4,7.4,27.1,6.5,24.4,6.5z
		 M31.1,17.1c0,0.1,0,0.3-0.1,0.4c-0.1,0.7-0.3,1.3-0.6,1.8c-0.1,0.2-0.2,0.3-0.3,0.5c-0.2,0.2-0.3,0.5-0.5,0.7c0,0,0,0,0,0.1
		c-0.1,0.1-0.2,0.3-0.4,0.4c-0.1,0.1-0.2,0.2-0.3,0.3l-14.2-5.2v0.1v0v0c0,1.3,0.2,2.5,0.7,3.6l9.3,3.4c-0.1,0.2-0.2,0.4-0.3,0.6
		c-0.3,0.5-0.8,1-1.2,1.5c-0.2,0.2-0.3,0.3-0.5,0.4c-0.2,0.2-0.4,0.3-0.6,0.5c-1.5,1.1-3.3,1.7-5.2,1.7c-2.4,0-4.5-0.9-6.3-2.6
		C8.9,23.6,8,21.5,8,19.1V19c0-0.1,0-0.1,0-0.2c0-0.3,0-0.7,0.1-1c0-0.2,0.1-0.4,0.1-0.6c0.2-1.1,0.6-2.1,1.2-3c0,0,0-0.1,0.1-0.1
		c0.2-0.3,0.4-0.5,0.6-0.7c0.2-0.2,0.4-0.4,0.6-0.7c0,0,0,0,0,0c0.8-0.7,1.6-1.3,2.5-1.7c0.2-0.1,0.4-0.2,0.6-0.2
		c0.8-0.3,1.6-0.5,2.4-0.5c0.3,0,0.5,0,0.8,0c-0.2,0.3-0.4,0.5-0.6,0.8c-0.1,0.2-0.3,0.4-0.4,0.6c-0.1,0.1-0.1,0.2-0.2,0.4
		c-0.4,0.7-0.6,1.5-0.8,2.4c-0.1,0.3-0.1,0.6-0.1,0.9l11,4V19c0-0.3,0-0.5,0-0.8c-0.1-1-0.3-2-0.8-2.9l-6.5-2.4
		c0.1-0.1,0.1-0.3,0.2-0.4c0.3-0.4,0.6-0.8,0.9-1.1c0,0,0,0,0,0c0.2-0.2,0.4-0.4,0.6-0.6c1.2-0.9,2.5-1.4,4.1-1.4c0.3,0,0.6,0,1,0.1
		c0.5,0.1,1,0.2,1.5,0.4c0.9,0.3,1.6,0.8,2.3,1.5c1.3,1.3,2,2.9,2,4.8C31.2,16.5,31.2,16.8,31.1,17.1z"/>
</g>
<path id="XMLID_4_" fill="none" d="M-588,378.9"/>
<path id="XMLID_3_" fill="none" d="M692-341.1"/>
<path id="XMLID_2_" fill="none" d="M692-341.1"/>
<path id="XMLID_1_" fill="none" d="M-588,378.9"/>
<g id="XMLID_6_">
</g>
<g id="XMLID_7_">
</g>
<g id="XMLID_8_">
</g>
<g id="XMLID_9_">
</g>
<g id="XMLID_10_">
</g>
<g id="XMLID_11_">
</g>
</svg>
